# xmcd
#
# Track frame offsets: 
#        150
#        26073
#        43523
#        62538
#        83075
#        97619
#        124864
#        138464
#        155923
#        204037
#        220535
#        236270
#        249420
#        267697
#        290548
#        303863
#        316518
#
# Disc length: 4788 seconds
#
# Revision: 0
# Processed by: cddbd v1.5.2PL0 Copyright (c) Steve Scherf et al.
# Submitted via: ExactAudioCopy v1.3
#
DISCID=dc12b211
DTITLE=Various Artist - Blues - Golden Age '60s -'70s  vol.06  CD2
DYEAR=2017
DGENRE=Rock
TTITLE0=Rory Gallagher (1976) - Secret Agent
TTITLE1=Wishbone Ash (1977) - Goodbye Baby Hello Friend
TTITLE2=Geordie (1974) - So What - Geordie (1974)
TTITLE3=Creedence Clearwater Revival (1968) - I Put A Spell On You
TTITLE4=Juicy Luicy (1970) - Pretty Woman
TTITLE5=Cactus (1970) - No Need To Worry
TTITLE6=Ray Owen (1971) - Free Man
TTITLE7=ZZ Top (1973) - La Grange
TTITLE8=Bullfrog (1976) - Get Away
TTITLE9=Joe Cocker (1975) - Jack A Diamonds
TTITLE10=Lynyrd Skynyrd (1976) - Gimme Back My Bullets
TTITLE11=Blackfoot (1975) - Indian World
TTITLE12=The Allman Brothers Band (1970) - Please Call Home
TTITLE13=Nazareth (1976) - Down Home Girl
TTITLE14=Slade (1973) - Look Wot You Dun
TTITLE15=Taste (1970) - What's Going On
TTITLE16=Wishbone Ash (1974) - F.U.B.B.
EXTD=
EXTT0=
EXTT1=
EXTT2=
EXTT3=
EXTT4=
EXTT5=
EXTT6=
EXTT7=
EXTT8=
EXTT9=
EXTT10=
EXTT11=
EXTT12=
EXTT13=
EXTT14=
EXTT15=
EXTT16=
PLAYORDER=
